<?xml version="1.0" standalone="no"?>
<!DOCTYPE svg PUBLIC "-//W3C//DTD SVG 20010904//EN"
 "http://www.w3.org/TR/2001/REC-SVG-20010904/DTD/svg10.dtd">
<svg version="1.0" xmlns="http://www.w3.org/2000/svg"
 width="50.000000pt" height="50.000000pt" viewBox="0 0 50.000000 50.000000"
 preserveAspectRatio="xMidYMid meet">
<metadata>
Created by potrace 1.16, written by Peter Selinger 2001-2019
</metadata>
<g transform="translate(0.000000,50.000000) scale(0.010000,-0.010000)"
fill="#c9c5c5" stroke="none">
<path d="M2774 4855 c51 -208 46 -308 -21 -444 -41 -84 -114 -163 -338 -361
-194 -172 -365 -340 -385 -381 -60 -117 -19 -273 120 -457 52 -69 304 -323
320 -322 3 1 18 11 33 24 l29 23 -106 160 c-145 220 -159 249 -164 350 -4 75
-2 87 25 145 36 76 103 151 238 267 254 217 376 382 415 562 19 87 9 205 -23
272 -29 57 -152 197 -143 162z"/>
<path d="M3255 4115 c-73 -11 -118 -26 -235 -78 -288 -127 -369 -178 -456
-285 -149 -181 -142 -361 21 -587 97 -134 103 -172 44 -269 -22 -35 -29 -58
-27 -85 l3 -36 -240 -18 c-193 -15 -262 -16 -349 -8 -60 6 -114 15 -119 20
-10 10 47 45 143 87 36 15 67 29 69 30 2 2 1 15 -3 29 -8 33 -24 32 -170 -11
-140 -41 -259 -94 -298 -131 -58 -55 -30 -114 70 -147 40 -13 215 -46 247 -46
6 0 -6 -10 -25 -21 -125 -75 -157 -191 -70 -256 75 -55 164 -73 395 -80 240
-7 537 24 815 85 53 12 51 43 -9 123 l-48 66 -89 -18 c-300 -60 -831 -87 -917
-48 -38 17 -43 44 -17 99 l22 47 142 7 c293 13 692 75 979 151 32 8 60 15 62
15 4 0 -5 61 -10 68 -1 1 -116 -7 -255 -18 -139 -11 -255 -19 -257 -17 -2 3
25 31 60 63 131 122 176 197 178 293 2 58 -19 107 -82 198 -68 99 -109 179
-109 214 0 105 121 225 448 442 176 118 206 140 185 136 -5 -1 -48 -7 -98 -14z"/>
<path d="M3333 2960 c-28 -6 -132 -77 -133 -91 0 -3 45 -11 100 -17 140 -16
186 -30 221 -64 25 -26 29 -37 29 -87 0 -65 -8 -80 -89 -165 -73 -76 -177
-157 -290 -226 -50 -30 -90 -57 -91 -60 0 -11 178 9 236 26 122 35 283 131
358 214 153 169 103 405 -97 465 -53 16 -188 19 -244 5z"/>
<path d="M1901 2111 l-74 -68 49 -37 c62 -45 183 -93 299 -118 115 -24 358
-25 512 -2 112 16 483 108 463 114 -3 1 -102 25 -220 53 -213 52 -216 52 -285
40 -243 -43 -495 -17 -617 63 -21 13 -41 24 -45 24 -5 -1 -41 -32 -82 -69z"/>
<path d="M1480 1917 c-158 -38 -249 -94 -271 -167 -37 -124 59 -193 313 -224
100 -12 109 -15 146 -48 84 -76 222 -134 392 -164 125 -22 385 -22 535 1 273
41 733 168 1047 290 l96 38 -10 31 c-6 17 -12 32 -13 34 -1 1 -31 -7 -66 -17
-121 -38 -424 -109 -594 -140 -378 -68 -738 -98 -1005 -81 -142 8 -299 26
-307 34 -2 1 122 6 274 9 386 9 1031 59 1203 92 87 18 194 52 230 73 102 61
140 104 140 156 0 28 -66 110 -81 100 -5 -3 -7 -10 -3 -15 3 -6 3 -21 0 -33
-8 -31 -71 -58 -223 -95 -385 -96 -749 -120 -1345 -86 -242 13 -338 26 -338
43 0 12 61 67 100 89 19 11 68 33 109 49 71 27 72 29 45 37 -16 5 -85 10 -154
13 -105 3 -140 0 -220 -19z"/>
<path d="M1489 1150 c-3 -687 -5 -744 -23 -793 -18 -48 -88 -127 -113 -127
-21 0 -16 -12 25 -58 l37 -43 60 39 c33 21 77 57 97 80 62 69 67 101 72 502 2
195 1 405 -3 465 l-6 110 -72 0 -73 1 -1 -176z"/>
<path d="M1965 1083 c-76 -9 -177 -36 -182 -48 -7 -20 16 -85 30 -85 7 0 37 7
67 15 65 17 155 19 198 4 42 -15 62 -49 62 -109 0 -49 -1 -50 -29 -50 -74 0
-252 -52 -300 -88 -90 -67 -94 -241 -7 -310 68 -53 184 -55 284 -6 31 16 61
29 65 29 4 0 13 -11 20 -25 11 -22 19 -25 62 -25 l50 0 3 240 c4 336 -8 392
-88 439 -25 15 -54 20 -119 21 -47 1 -99 0 -116 -2z m177 -415 c5 -116 -7
-141 -79 -168 -70 -26 -106 -25 -138 3 -35 30 -46 104 -21 142 20 30 50 43
126 54 109 17 110 16 112 -31z"/>
<path d="M3157 1066 c-42 -12 -79 -25 -82 -27 -4 -5 10 -78 17 -85 2 -2 42 4
88 12 47 9 111 14 144 12 77 -6 106 -35 106 -109 0 -27 -3 -49 -6 -49 -32 0
-249 -57 -284 -74 -137 -68 -143 -285 -10 -354 55 -29 127 -26 242 11 l77 25
16 -24 c13 -20 24 -24 65 -24 l50 0 0 288 c0 280 -1 288 -23 327 -37 66 -91
89 -217 92 -87 3 -118 -1 -183 -21z m276 -413 c-7 -107 -11 -120 -47 -142 -49
-31 -117 -38 -154 -16 -65 39 -70 136 -9 175 23 14 129 37 183 39 l31 1 -4
-57z"/>
<path d="M2376 1058 c4 -13 48 -160 99 -327 58 -194 99 -312 112 -327 19 -21
31 -24 91 -24 53 0 73 4 85 18 22 24 100 232 137 362 35 126 80 301 80 312 0
4 -33 8 -74 8 l-73 0 -64 -260 c-37 -151 -68 -259 -74 -257 -5 2 -41 108 -80
236 -45 148 -78 241 -92 257 -19 21 -30 24 -88 24 -64 0 -66 -1 -59 -22z"/>
</g>
</svg>
