<?xml version="1.0" encoding="UTF-8"?>
<svg xmlns="http://www.w3.org/2000/svg" xmlns:xlink="http://www.w3.org/1999/xlink" width="67px" height="67px" viewBox="0 0 50 50" version="1.1">
<g id="surface1">
<path style=" stroke:none;fill-rule:nonzero;fill:rgb(77.3%,77.3%,77.3%);fill-opacity:1;" d="M 23.378906 0.253906 C 23.09375 0.363281 21.707031 1.003906 20.3125 1.730469 C 16.617188 3.617188 14.980469 4.464844 8.066406 7.992188 C 1.367188 11.402344 1.050781 11.597656 0.492188 12.621094 C 0.332031 12.90625 0.167969 13.382812 0.101562 13.699219 C -0.046875 14.46875 -0.0273438 35.082031 0.121094 35.863281 C 0.167969 36.191406 0.332031 36.691406 0.484375 36.941406 C 0.976562 37.863281 1.535156 38.253906 4.824219 39.917969 C 9.105469 42.09375 10.019531 42.410156 12.136719 42.410156 C 12.84375 42.410156 13.644531 42.335938 14.035156 42.28125 C 16.152344 41.824219 17.59375 40.503906 18.117188 38.523438 C 18.300781 37.832031 18.3125 37.09375 18.3125 26.832031 C 18.3125 16.089844 18.3125 15.867188 18.105469 15.726562 C 17.867188 15.578125 15.039062 15.550781 14.769531 15.699219 C 14.632812 15.773438 14.601562 17.113281 14.554688 26.589844 L 14.511719 37.40625 L 14.273438 37.789062 C 13.570312 38.96875 12.15625 39.40625 10.546875 38.925781 C 9.8125 38.699219 4.371094 36.011719 3.890625 35.621094 C 3.710938 35.472656 3.695312 35.128906 3.695312 24.804688 C 3.695312 16.40625 3.726562 14.109375 3.832031 13.988281 C 3.933594 13.867188 8.054688 11.746094 22.597656 4.324219 C 23.734375 3.738281 24.730469 3.273438 24.804688 3.273438 C 24.90625 3.273438 26.859375 4.25 36.355469 9.105469 C 37.574219 9.738281 40.175781 11.058594 42.113281 12.050781 C 44.046875 13.027344 45.703125 13.914062 45.777344 13.988281 C 45.882812 14.109375 45.914062 16.40625 45.914062 24.789062 L 45.914062 35.410156 L 45.628906 35.648438 C 45.449219 35.800781 43.191406 36.988281 40.578125 38.328125 C 37.964844 39.648438 33.425781 41.964844 30.496094 43.460938 C 27.566406 44.96875 25.015625 46.195312 24.851562 46.230469 C 24.59375 46.242188 24.023438 45.972656 21.890625 44.863281 C 20.449219 44.09375 19.167969 43.453125 19.082031 43.40625 C 18.972656 43.375 18.570312 43.507812 18.070312 43.75 C 17.625 43.945312 16.8125 44.277344 16.257812 44.472656 C 15.71875 44.652344 15.25 44.847656 15.234375 44.90625 C 15.207031 44.96875 15.28125 45.089844 15.402344 45.175781 C 15.652344 45.40625 22.507812 48.976562 23.183594 49.265625 C 23.605469 49.429688 23.886719 49.460938 24.804688 49.460938 C 25.765625 49.460938 25.976562 49.429688 26.488281 49.21875 C 26.804688 49.082031 30.300781 47.324219 34.238281 45.3125 C 38.1875 43.285156 42.867188 40.914062 44.605469 40.011719 C 46.726562 38.925781 47.972656 38.234375 48.289062 37.964844 C 48.78125 37.527344 49.3125 36.71875 49.441406 36.148438 C 49.488281 35.964844 49.535156 30.832031 49.515625 24.730469 C 49.515625 14.480469 49.488281 13.597656 49.320312 13.113281 C 49.117188 12.515625 48.539062 11.746094 48.019531 11.386719 C 47.824219 11.253906 45.703125 10.140625 43.332031 8.910156 C 40.941406 7.691406 37.050781 5.710938 34.671875 4.492188 C 32.285156 3.273438 29.492188 1.851562 28.457031 1.308594 C 27.4375 0.78125 26.367188 0.296875 26.097656 0.222656 C 25.40625 0.046875 24.023438 0.0585938 23.378906 0.253906 Z M 23.378906 0.253906 "/>
<path style=" stroke:none;fill-rule:nonzero;fill:rgb(77.3%,77.3%,77.3%);fill-opacity:1;" d="M 28.292969 14.351562 C 25.40625 14.742188 23.148438 15.699219 21.933594 17.039062 C 19.753906 19.429688 20.089844 23.300781 22.628906 25.015625 C 24.265625 26.097656 26.394531 26.621094 31.128906 27.089844 C 35.53125 27.523438 37.515625 27.976562 38.328125 28.738281 C 38.699219 29.085938 38.839844 29.433594 38.839844 30.019531 C 38.839844 32.40625 36.496094 33.382812 31.082031 33.230469 C 26.621094 33.109375 24.953125 32.347656 24.277344 30.125 C 24.144531 29.714844 24.007812 29.28125 23.964844 29.148438 C 23.855469 28.757812 23.496094 28.683594 21.875 28.683594 C 19.742188 28.683594 19.652344 28.738281 19.773438 30.0625 C 20.023438 33.230469 22.386719 35.425781 26.488281 36.328125 C 28.785156 36.839844 32.617188 36.988281 35.128906 36.660156 C 40.488281 35.996094 43.40625 33.578125 43.40625 29.855469 C 43.40625 28.125 42.941406 26.980469 41.855469 26.023438 C 40.382812 24.710938 38.011719 24.039062 32.765625 23.410156 C 27.78125 22.792969 26.144531 22.414062 25.4375 21.707031 C 25.136719 21.410156 25.121094 21.335938 25.121094 20.65625 C 25.121094 19.773438 25.34375 19.320312 25.960938 18.84375 C 26.925781 18.117188 28.367188 17.832031 31.082031 17.832031 C 33.714844 17.832031 34.988281 18.042969 36.148438 18.628906 C 37.050781 19.113281 37.816406 20.089844 38.113281 21.167969 C 38.328125 21.96875 38.296875 21.949219 40.382812 21.949219 L 42.214844 21.949219 L 42.382812 21.707031 C 42.550781 21.5 42.550781 21.390625 42.441406 20.71875 C 42.128906 18.929688 41.5 17.773438 40.261719 16.660156 C 38.960938 15.523438 37.363281 14.859375 34.933594 14.46875 C 33.304688 14.210938 29.734375 14.136719 28.292969 14.351562 Z M 28.292969 14.351562 "/>
</g>
</svg>
