<?xml version="1.0" standalone="no"?>
<!DOCTYPE svg PUBLIC "-//W3C//DTD SVG 20010904//EN"
 "http://www.w3.org/TR/2001/REC-SVG-20010904/DTD/svg10.dtd">
<svg version="1.0" xmlns="http://www.w3.org/2000/svg"
 width="50.000000pt" height="50.000000pt" viewBox="0 0 50.000000 50.000000"
 preserveAspectRatio="xMidYMid meet">
<metadata>
Created by potrace 1.16, written by Peter Selinger 2001-2019
</metadata>
<g transform="translate(0.000000,50.000000) scale(0.016779,-0.029586)"
fill="#c9c5c5" stroke="none">
<path d="M795 1610 c-155 -31 -303 -134 -379 -264 -74 -127 -91 -296 -43 -433
75 -216 263 -353 507 -369 215 -15 394 74 540 268 35 46 66 83 70 83 4 0 35
-37 70 -83 146 -194 325 -283 540 -268 220 15 388 123 479 308 86 174 73 361
-36 525 -96 145 -287 243 -472 243 -199 -1 -402 -111 -531 -289 -24 -33 -47
-61 -50 -61 -3 0 -26 28 -50 61 -155 213 -415 325 -645 279z m298 -223 c83
-42 160 -115 236 -226 l50 -73 -26 -42 c-94 -149 -174 -235 -264 -283 -50 -26
-62 -28 -169 -28 -109 0 -118 2 -181 32 -155 76 -238 247 -194 398 20 69 35
96 89 153 43 46 111 86 173 102 21 5 78 8 126 6 77 -3 97 -8 160 -39z m1142 9
c181 -82 260 -279 182 -450 -67 -146 -208 -224 -386 -214 -156 9 -259 87 -394
299 l-36 57 50 73 c96 141 207 231 315 258 22 6 77 9 124 8 68 -3 97 -9 145
-31z"/>
<path d="M750 1095 l0 -55 170 0 170 0 0 55 0 55 -170 0 -170 0 0 -55z"/>
<path d="M1990 1205 l0 -55 -50 0 -50 0 0 -55 0 -55 50 0 50 0 0 -55 0 -55 60
0 60 0 0 55 0 55 50 0 50 0 0 55 0 55 -50 0 -50 0 0 55 0 55 -60 0 -60 0 0
-55z"/>
<path d="M432 268 c-29 -95 -52 -177 -52 -181 0 -5 14 -7 32 -5 27 2 34 9 42
36 l9 32 67 0 67 0 9 -32 c8 -29 14 -33 47 -36 20 -2 37 0 37 5 0 4 -24 85
-53 178 l-53 170 -50 3 -49 3 -53 -173z"/>
<path d="M732 261 l2 -181 33 0 33 0 0 75 c0 67 2 75 19 75 28 0 46 -22 77
-90 26 -58 28 -60 65 -60 22 0 39 2 39 5 0 12 -70 144 -80 150 -6 4 5 20 25
39 37 35 44 66 24 109 -17 38 -48 50 -146 55 l-93 5 2 -182z"/>
<path d="M1050 260 l0 -182 89 4 c96 3 123 15 164 70 30 40 35 143 9 201 -27
62 -63 79 -174 85 l-88 4 0 -182z m174 97 c43 -43 42 -161 -3 -201 -11 -10
-38 -20 -60 -23 l-41 -6 0 127 0 126 40 0 c29 0 47 -7 64 -23z"/>
<path d="M1371 308 c0 -75 5 -148 12 -168 21 -63 118 -90 193 -54 53 25 64 56
65 186 3 174 4 168 -31 168 l-30 0 0 -127 c0 -156 -8 -177 -67 -181 -65 -5
-73 15 -73 175 l0 133 -35 0 -35 0 1 -132z"/>
<path d="M1720 410 c0 -28 2 -30 40 -30 l40 0 0 -125 0 -125 -40 0 c-36 0 -40
-2 -40 -25 l0 -25 115 0 115 0 0 25 c0 23 -4 25 -40 25 l-40 0 0 125 0 125 40
0 c38 0 40 2 40 30 l0 30 -115 0 -115 0 0 -30z"/>
<path d="M2027 433 c-2 -4 -5 -86 -4 -180 l0 -173 33 0 33 0 3 125 3 124 56
-122 55 -122 47 -3 47 -3 0 180 0 181 -35 0 -35 0 0 -127 0 -128 -59 125 -58
125 -41 3 c-22 2 -42 -1 -45 -5z"/>
<path d="M2408 424 c-45 -24 -71 -87 -71 -170 0 -125 56 -190 156 -181 93 8
137 68 137 185 0 129 -41 182 -139 182 -31 -1 -68 -8 -83 -16z m128 -65 c26
-29 32 -144 10 -187 -19 -36 -56 -50 -92 -33 -32 14 -44 48 -44 125 0 49 5 69
21 90 26 33 77 36 105 5z"/>
</g>
</svg>
